<svg xmlns="http://www.w3.org/2000/svg" viewBox="0 0 512 512">
  <defs>
    <linearGradient id="bg" x1="0%" y1="0%" x2="100%" y2="100%">
      <stop offset="0%" stop-color="#db2777" />
      <stop offset="100%" stop-color="#831843" />
    </linearGradient>
    <linearGradient id="heart" x1="0%" y1="0%" x2="100%" y2="100%">
      <stop offset="0%" stop-color="#ffffff" />
      <stop offset="100%" stop-color="#fbcfe8" />
    </linearGradient>
  </defs>
  <rect width="512" height="512" rx="112" fill="url(#bg)" />
  <path d="M256 384c-12 0-24-4-32-12-88-80-144-136-144-204 0-56 44-100 100-100 32 0 64 16 80 44 16-28 48-44 80-44 56 0 100 44 100 100 0 68-56 124-144 204-8 8-20 12-32 12z" fill="url(#heart)" />
  <circle cx="256" cy="220" r="40" fill="#db2777" opacity="0.8" />
  <circle cx="256" cy="220" r="20" fill="#ffffff" />
</svg>
